<svg width="24" height="25" viewBox="0 0 24 25" fill="none" xmlns="http://www.w3.org/2000/svg">
<rect y="0.5" width="24" height="24" rx="12" fill="white"/>
<path d="M15.7996 15.8992C15.7996 16.1201 15.6205 16.2992 15.3996 16.2992H15.0003C14.7794 16.2992 14.6003 16.1201 14.6003 15.8992V11.7121C14.6003 11.3558 14.1695 11.1773 13.9175 11.4293L9.40662 15.9402C9.25041 16.0964 8.99715 16.0964 8.84094 15.9402L8.55897 15.6582C8.40276 15.502 8.40276 15.2487 8.55897 15.0925L13.0698 10.5816C13.3218 10.3297 13.1434 9.8988 12.787 9.8988H8.59995C8.37904 9.8988 8.19995 9.71972 8.19995 9.4988V9.09958C8.19995 8.87867 8.37904 8.69958 8.59995 8.69958H15.3996C15.6205 8.69958 15.7996 8.87867 15.7996 9.09958V15.8992Z" fill="#AC873E"/>
</svg>
