<svg width="18" height="19" viewBox="0 0 18 19" fill="none" xmlns="http://www.w3.org/2000/svg">
<path d="M9 1C11.2543 1 13.4167 1.8952 15.0107 3.48926C16.6048 5.08332 17.5 7.24566 17.5 9.5C17.5 11.1811 17.0014 12.8248 16.0674 14.2227C15.1335 15.6203 13.8059 16.7092 12.2529 17.3525C10.6998 17.9959 8.9906 18.1649 7.3418 17.8369C5.69296 17.5089 4.178 16.6995 2.98926 15.5107C1.80051 14.322 0.99106 12.807 0.663086 11.1582C0.335141 9.5094 0.50413 7.80021 1.14746 6.24707C1.79078 4.69411 2.87973 3.36655 4.27734 2.43262C5.67516 1.49863 7.31886 1 9 1ZM12.5557 5.97559C12.2789 5.93419 11.9962 5.98675 11.7529 6.125L11.6953 6.1582L11.6484 6.2041L7.66211 10.1348L6.30566 8.77832L6.24707 8.74512C6.0038 8.60684 5.72108 8.5543 5.44434 8.5957C5.16744 8.6372 4.91186 8.77095 4.71973 8.97461C4.52787 9.17815 4.41011 9.44018 4.38477 9.71875C4.35947 9.99744 4.42793 10.2769 4.58008 10.5117L4.60742 10.5537L4.6416 10.5889L6.77148 12.7783L6.77441 12.7812C6.89038 12.8987 7.02827 12.9924 7.18066 13.0557C7.33069 13.1179 7.49192 13.1491 7.6543 13.1494V13.1504C7.65544 13.1504 7.65706 13.1494 7.6582 13.1494C7.6595 13.1494 7.66081 13.1504 7.66211 13.1504L7.66113 13.1494C7.82514 13.1503 7.98812 13.1186 8.13965 13.0557C8.29125 12.9927 8.42876 12.9001 8.54395 12.7832L13.3906 7.93652L13.4199 7.8916C13.572 7.65677 13.6405 7.37729 13.6152 7.09863C13.5899 6.82008 13.4721 6.55802 13.2803 6.35449C13.0881 6.15083 12.8326 6.01708 12.5557 5.97559Z" fill="url(#paint0_linear_2007_5035)" stroke="url(#paint1_linear_2007_5035)"/>
<defs>
<linearGradient id="paint0_linear_2007_5035" x1="12.7043" y1="-11.5356" x2="12.7043" y2="32.915" gradientUnits="userSpaceOnUse">
<stop stop-color="#D4B26F"/>
<stop offset="1" stop-color="#A87C25"/>
</linearGradient>
<linearGradient id="paint1_linear_2007_5035" x1="12.7043" y1="-11.5356" x2="12.7043" y2="32.915" gradientUnits="userSpaceOnUse">
<stop stop-color="#D4B26F"/>
<stop offset="1" stop-color="#A87C25"/>
</linearGradient>
</defs>
</svg>
