<svg width="24" height="25" viewBox="0 0 24 25" fill="none" xmlns="http://www.w3.org/2000/svg">
<rect y="0.5" width="24" height="24" rx="12" fill="white"/>
<path d="M15.7996 15.8993C15.7996 16.1202 15.6205 16.2993 15.3996 16.2993H15.0003C14.7794 16.2993 14.6003 16.1202 14.6003 15.8993V11.7123C14.6003 11.3559 14.1695 11.1774 13.9175 11.4294L9.40662 15.9403C9.25041 16.0965 8.99715 16.0965 8.84094 15.9403L8.55897 15.6583C8.40276 15.5021 8.40276 15.2489 8.55897 15.0926L13.0698 10.5818C13.3218 10.3298 13.1434 9.89893 12.787 9.89893H8.59995C8.37904 9.89893 8.19995 9.71984 8.19995 9.49893V9.09971C8.19995 8.87879 8.37904 8.69971 8.59995 8.69971H15.3996C15.6205 8.69971 15.7996 8.87879 15.7996 9.09971V15.8993Z" fill="#AC873E"/>
</svg>
