<svg width="24" height="25" viewBox="0 0 24 25" fill="none" xmlns="http://www.w3.org/2000/svg">
<path d="M12 4C14.2543 4 16.4167 4.8952 18.0107 6.48926C19.6048 8.08332 20.5 10.2457 20.5 12.5C20.5 14.1811 20.0014 15.8248 19.0674 17.2227C18.1335 18.6203 16.8059 19.7092 15.2529 20.3525C13.6998 20.9959 11.9906 21.1649 10.3418 20.8369C8.69296 20.5089 7.178 19.6995 5.98926 18.5107C4.80051 17.322 3.99106 15.807 3.66309 14.1582C3.33514 12.5094 3.50413 10.8002 4.14746 9.24707C4.79078 7.69411 5.87973 6.36655 7.27734 5.43262C8.67516 4.49863 10.3189 4 12 4ZM15.5557 8.97559C15.2789 8.93419 14.9962 8.98675 14.7529 9.125L14.6953 9.1582L14.6484 9.2041L10.6621 13.1348L9.30566 11.7783L9.24707 11.7451C9.0038 11.6068 8.72108 11.5543 8.44434 11.5957C8.16744 11.6372 7.91186 11.7709 7.71973 11.9746C7.52787 12.1782 7.41011 12.4402 7.38477 12.7188C7.35947 12.9974 7.42793 13.2769 7.58008 13.5117L7.60742 13.5537L7.6416 13.5889L9.77148 15.7783L9.77441 15.7812C9.89038 15.8987 10.0283 15.9924 10.1807 16.0557C10.3307 16.1179 10.4919 16.1491 10.6543 16.1494V16.1504C10.6554 16.1504 10.6571 16.1494 10.6582 16.1494C10.6595 16.1494 10.6608 16.1504 10.6621 16.1504L10.6611 16.1494C10.8251 16.1503 10.9881 16.1186 11.1396 16.0557C11.2912 15.9927 11.4288 15.9001 11.5439 15.7832L16.3906 10.9365L16.4199 10.8916C16.572 10.6568 16.6405 10.3773 16.6152 10.0986C16.5899 9.82007 16.4721 9.55802 16.2803 9.35449C16.0881 9.15083 15.8326 9.01708 15.5557 8.97559Z" fill="url(#paint0_linear_2_1227)" stroke="url(#paint1_linear_2_1227)"/>
<defs>
<linearGradient id="paint0_linear_2_1227" x1="15.7043" y1="-8.53556" x2="15.7043" y2="35.915" gradientUnits="userSpaceOnUse">
<stop stop-color="#D4B26F"/>
<stop offset="1" stop-color="#A87C25"/>
</linearGradient>
<linearGradient id="paint1_linear_2_1227" x1="15.7043" y1="-8.53556" x2="15.7043" y2="35.915" gradientUnits="userSpaceOnUse">
<stop stop-color="#D4B26F"/>
<stop offset="1" stop-color="#A87C25"/>
</linearGradient>
</defs>
</svg>
